inDegrees=yes
name=ik_S52_A13_T02
DataType=double
version=3
OpenSimVersion=4.3-2021-08-27-4bc7ad9
endheader
time	pelvis_tilt	pelvis_list	pelvis_rotation	pelvis_tx	pelvis_ty	pelvis_tz	hip_flexion_r	hip_adduction_r	hip_rotation_r	knee_angle_r	knee_angle_r_beta	ankle_angle_r	subtalar_angle_r	mtp_angle_r	hip_flexion_l	hip_adduction_l	hip_rotation_l	knee_angle_l	knee_angle_l_beta	ankle_angle_l	subtalar_angle_l	mtp_angle_l	lumbar_extension	lumbar_bending	lumbar_rotation	arm_flex_r	arm_add_r	arm_rot_r	elbow_flex_r	pro_sup_r	wrist_flex_r	wrist_dev_r	arm_flex_l	arm_add_l	arm_rot_l	elbow_flex_l	pro_sup_l	wrist_flex_l	wrist_dev_l
0	0	0	0	0	0.9399999999999999	0	0	0	0	0	0	0	0	0	0	0	0	0	0	0	0	0	0	0	0	0	0	0	0	89.99999999963507	0	0	0	0	0	0	89.99999999869995	0	0
0.02	-1.769164359094702	-0.931923330024944	24.08703031343882	0	0.9399999999999999	0	3.204405606304276	-1.500014548455015	-1.079378286983184	4.949856891336766	0.08639130025635774	0	0	0	3.204405606304276	-1.500014548455015	-1.079378286983184	4.949856891336766	0.08639130025635774	0	0	0	-0.3092557408979443	-0.3383024337112101	3.842831084167583	22.82994271576606	1.632027515264505	18.31217269036162	20.98830079238254	179.9558790978585	0	0	14.86461603333179	-7.291145293736085	9.407534730276099	22.10103638310107	156.2991445062547	0	0
0.04	-1.756935329114693	-0.9111159649212497	24.14933524094634	0	0.9399999999999999	0	3.219199971223726	-1.507602300304772	-1.084430568973333	4.969829976409154	0.08673989635265185	0	0	0	3.219199971223726	-1.507602300304772	-1.084430568973333	4.969829976409154	0.08673989635265185	0	0	0	-0.2908012226961617	-0.3233079355299874	3.765061952201652	22.78550614893897	1.630571951447536	18.37948092689341	21.02604402760126	179.9557279060241	0	0	14.78560247044771	-7.288462723822035	9.372741601737753	22.12103843024128	156.2998114572613	0	0
0.06	-1.787449306288618	-0.9245394984963552	24.2068700169375	0	0.9399999999999999	0	3.225988453401034	-1.511051587652064	-1.086744217305095	4.978995287787369	0.08689986121317221	0	0	0	3.225988453401034	-1.511051587652064	-1.086744217305095	4.978995287787369	0.08689986121317221	0	0	0	-0.325382519855023	-0.3218107416153707	3.680835446058655	22.81990457288095	1.623070793427178	18.42522565655354	21.08972840518095	179.9556777486254	0	9.952579248852346e-38	14.86245940431869	-7.298365583267088	9.32558208386175	22.1439972829573	156.3011784190938	0	9.952579248852346e-38
0.08	-1.797203139790242	-0.9546176650678779	24.29266234609871	0	0.9399999999999999	0	3.253031124707977	-1.524946914436087	-1.095985498972245	5.015435708102398	0.08753586652848008	0	0	0	3.253031124707977	-1.524946914436087	-1.095985498972245	5.015435708102398	0.08753586652848008	0	0	0	-0.3479805792809104	-0.3443212035227661	3.620904322710428	22.89787500204976	1.682149282421457	18.39419472966135	20.97802021556085	179.9557240373901	0	0	14.87531532785508	-7.332519167059477	9.375493129222845	22.13577439203237	156.3080561659351	0	0
0.1	-1.767763155973376	-0.9258730727011313	24.36703335276674	0	0.9399999999999999	0	3.267552391743795	-1.532386350785843	-1.100945429914348	5.034984732508583	0.08787706136992075	0	0	0	3.267552391743795	-1.532386350785843	-1.100945429914348	5.034984732508583	0.08787706136992075	0	0	0	-0.3103403748100171	-0.3294886894156338	3.557289823985303	22.8044248128594	1.653459361330584	18.42437497814078	20.99613972851496	179.9555993093275	0	0	14.78619825184477	-7.32191045317828	9.377006920231997	22.12640342840821	156.2802399741265	0	0
0.12	-1.763223089593275	-0.9193162249165397	24.43458839073958	0	0.9399999999999999	0	3.282343463942655	-1.539961661004391	-1.105997817015135	5.054880102750863	0.08822430108655183	0	0	0	3.282343463942655	-1.539961661004391	-1.105997817015135	5.054880102750863	0.08822430108655183	0	0	0	-0.3046311251217536	-0.3244648336122721	3.486571049373407	22.77903321225809	1.649005322482553	18.46030390101616	21.02126208876523	179.9556388439447	0	0	14.75006079241827	-7.324785155339561	9.370055495730895	22.11933469386273	156.2324696877822	0	0
0.14	-1.783976260377579	-0.9512563845859243	24.51123111964499	0	0.9399999999999999	0	3.306152414200911	-1.552174705372628	-1.114134969317281	5.086861278146228	0.08878247789585875	0	0	0	3.306152414200911	-1.552174705372628	-1.114134969317281	5.086861278146228	0.08878247789585875	0	0	0	-0.3380859669666255	-0.3438896008151012	3.420725490322796	22.84459245352495	1.682102679554896	18.44343709809952	21.01001042189187	179.9558249838782	0	0	14.81612759504378	-7.35150273465123	9.395344281361135	22.11840887254843	156.2157544486684	0	0
0.16	-1.783283725202659	-0.9347344581292045	24.58511694775507	0	0.9399999999999999	0	3.32173814527351	-1.560147702822609	-1.119459218471536	5.107779151076726	0.08914756365100975	0	0	0	3.32173814527351	-1.560147702822609	-1.119459218471536	5.107779151076726	0.08914756365100975	0	0	0	-0.3317343627355621	-0.3281668074827543	3.352025520069214	22.81948071368828	1.65880795808093	18.44554848856769	21.03566442617235	179.9556467327391	0	0	14.79220496661189	-7.318931407823178	9.383593242389674	22.11587122615582	156.2241060408214	0	0
0.18	-1.763180232520192	-0.9305809234549455	24.65997067714155	0	0.9399999999999999	0	3.340141448771544	-1.569568132262809	-1.125747838187474	5.132452676337651	0.08957819790488689	0	0	0	3.340141448771544	-1.569568132262809	-1.125747838187474	5.132452676337651	0.08957819790488689	0	0	0	-0.3127699349619599	-0.3318677313706654	3.290448824559927	22.78120857472919	1.661225597082627	18.42589388034381	21.01181244137696	179.9557807160564	0	0	14.75021175598397	-7.328772063226356	9.412066681982651	22.11628576000187	156.2301838755453	0	0
0.2	-1.779511578700338	-0.9267018116064089	24.72297725921496	0	0.9399999999999999	0	3.350137596120411	-1.574661943413569	-1.129160529091199	5.145849093526107	0.08981200949279619	0	0	0	3.350137596120411	-1.574661943413569	-1.129160529091199	5.145849093526107	0.08981200949279619	0	0	0	-0.3271401563599771	-0.3204102924314305	3.213030361183896	22.79000842112185	1.636147836594059	18.49443371290739	21.0583033974322	179.955707976682	0	0	14.77542006603696	-7.318466433890272	9.398356968090321	22.12783277297801	156.2340234413891	0	0
0.22	-1.79827182765952	-0.9390039646797159	24.78913040759773	0	0.9399999999999999	0	3.360177321561052	-1.579775258075059	-1.132587972619706	5.15929676549941	0.09004671564545849	0	0	0	3.360177321561052	-1.579775258075059	-1.132587972619706	5.15929676549941	0.09004671564545849	0	0	0	-0.3504763771523025	-0.3226028978500813	3.140052591596503	22.82150873013794	1.64229869102946	18.51583693020685	21.07976208569166	179.9555404782198	0	0	14.81872589403166	-7.323737414443596	9.395090080795953	22.1433596373814	156.2511054346077	0	0
0.24	-1.77578092796829	-0.9351392909061502	24.88126241704507	0	0.9399999999999999	0	3.375641478812568	-1.587680859899564	-1.137872430074002	5.179986674730866	0.09040782268348617	0	0	0	3.375641478812568	-1.587680859899564	-1.137872430074002	5.179986674730866	0.09040782268348617	0	0	0	-0.3293011447008463	-0.327959527021247	3.094968418258587	22.77837660898435	1.645642439087531	18.4652739255785	21.03144312376865	179.9555058106993	0	0	14.77248316547033	-7.322039470007579	9.449269909305016	22.13909468512369	156.2806884538402	0	0
0.26	-1.782791632144378	-0.9474767225500061	24.95562949782151	0	0.9399999999999999	0	3.39687923917371	-1.598543520142009	-1.145131935230402	5.208367438379154	0.09090316045337911	0	0	0	3.39687923917371	-1.598543520142009	-1.145131935230402	5.208367438379154	0.09090316045337911	0	0	0	-0.3420503433821331	-0.3350741385232498	3.028843305924128	22.81867532666053	1.65209278556218	18.43142862868296	20.99360070383057	179.9556343230845	0	0	14.80326549825636	-7.330314044006338	9.461698108217428	22.14758529713967	156.2886756235259	0	0
0.28	-1.787640825615672	-0.9542820067537438	25.02118231722974	0	0.9399999999999999	0	3.410047382452623	-1.605238253027587	-1.149627347218159	5.225959575888901	0.09121020117538778	0	0	0	3.410047382452623	-1.605238253027587	-1.149627347218159	5.225959575888901	0.09121020117538778	0	0	0	-0.3502928690497163	-0.3377043788514404	2.94805835365593	22.82868946642724	1.662084910447572	18.42279265957656	21.00490441854222	179.9552360356804	0	0	14.83195806986705	-7.348944188013435	9.511161408017145	22.1628373010931	156.2347117553042	0	0
0.3	-1.775868457447737	-0.9551590230334128	25.09583126505439	0	0.9399999999999999	0	3.425576391067121	-1.613170093458284	-1.15493524220235	5.246677358514472	0.09157179469591649	0	0	0	3.425576391067121	-1.613170093458284	-1.15493524220235	5.246677358514472	0.09157179469591649	0	0	0	-0.3410518127022309	-0.342620578859043	2.889710108675532	22.82579084851432	1.664910015399121	18.40765746721208	20.97291777678448	179.9552690244706	0	0	14.79795222631936	-7.3682252281089	9.524439387427256	22.20427456603768	156.220348145939	0	0
0.32	-1.753433759986142	-0.9421927253738027	25.16839112485407	0	0.9399999999999999	0	3.438871737965614	-1.619957817826106	-1.159479763474468	5.264400873112527	0.09188112838067783	0	0	0	3.438871737965614	-1.619957817826106	-1.159479763474468	5.264400873112527	0.09188112838067783	0	0	0	-0.3161821302455655	-0.3395954897399057	2.833592337938836	22.78733003596057	1.644512508092195	18.4053008631118	21.00884935874214	179.9551651172775	0	0	14.7532961363563	-7.36643079507807	9.500310054646535	22.23199079247521	156.2151167661492	0	0
